#N canvas 1722 25 838 1298 12;
#X obj 428 28 tgl 50 0 empty empty empty 17 7 0 10 -4034 -1 -1 0 1
;
#X obj 9 11 tgl 15 0 empty empty empty 17 7 0 10 -262144 -1 -1 0 1
;
#X msg 9 36 \; pd dsp \$1;
#X obj 458 151 bng 15 250 50 0 empty empty empty 17 7 0 10 -262144
-1 -1;
#X obj 267 272 loadbang;
#X obj 267 314 array set \$0-scale;
#X obj 267 335 array define \$0-scale;
#X msg 267 293 0 1 4 5 8 9;
#X obj 71 432 loadbang;
#X obj 15 540 s root;
#X floatatom 15 510 5 0 0 0 - - -;
#X obj 15 478 + 0;
#X floatatom 15 447 5 0 0 0 - - -;
#X floatatom 15 378 5 0 5 0 - - -;
#X obj 52 327 loadbang;
#X text 345 273 Sets global scale.;
#X msg 71 459 50;
#X obj 30 1250 dac~;
#X obj 380 143 f;
#X obj 419 143 + 1;
#X obj 336 113 == 0;
#X obj 380 170 s counter;
#X obj 273 113 s lvl_0;
#X obj 451 85 s toggle;
#X obj 273 659 r toggle;
#X obj 267 369 loadbang;
#X text 345 370 Sets modulation scale.;
#X obj 267 411 array set \$1-scale;
#X obj 267 432 array define \$1-scale;
#X obj 15 408 tabread \$1-scale;
#X msg 267 390 0 2 4 6 8 10;
#X obj 273 716 bng 15 250 50 0 empty empty empty 17 7 0 10 -262144
-1 -1;
#N canvas 972 25 748 1192 leads 1;
#N canvas 198 407 450 300 random_note 0;
#X obj 68 119 + 0;
#X obj 17 119 print;
#X obj 68 15 inlet;
#X obj 68 187 outlet;
#X obj 68 151 mtof;
#X floatatom 196 114 5 0 0 0 - - -;
#X obj 196 85 inlet;
#X obj 68 84 tabread \$0-scale;
#X obj 147 15 inlet;
#X obj 68 52 random 6;
#X connect 0 0 4 0;
#X connect 2 0 9 0;
#X connect 4 0 3 0;
#X connect 6 0 0 1;
#X connect 6 0 5 0;
#X connect 7 0 0 0;
#X connect 8 0 9 1;
#X connect 9 0 7 0;
#X restore 148 389 pd random_note;
#X msg 195 349 6;
#X obj 222 313 loadbang;
#X floatatom 86 408 5 0 0 0 - - -;
#X obj 280 1046 *~;
#X obj 243 341 r root;
#X obj 245 586 phasor~;
#X obj 129 336 euclid;
#X obj 148 363 bng 15 250 50 0 empty empty empty 17 7 0 10 -262144
-1 -1;
#X floatatom 142 217 5 0 0 0 - - -;
#X obj 168 240 loadbang;
#X msg 168 306 16;
#X obj 47 499 ftom;
#X floatatom 45 529 5 0 0 0 - - -;
#X floatatom 518 506 5 0 0 0 - - -;
#X floatatom 499 477 5 0 0 0 - - -;
#X floatatom 482 452 5 0 0 0 - - -;
#X floatatom 447 405 5 0 0 0 - - -;
#X floatatom 465 430 5 0 0 0 - - -;
#X text 485 403 peak level;
#X text 506 425 attack duration (ms);
#X text 520 447 decay duration (ms);
#X text 540 473 sustain level (% of peak);
#X text 552 503 release duration (ms);
#N canvas 251 52 707 458 envelope_adsr 0;
#X obj 209 53 moses;
#X obj 112 56 inlet;
#X obj 112 92 sel 0;
#X msg 111 130 stop;
#X obj 209 93 t b b;
#X obj 258 125 t b;
#X obj 174 209 f \$1;
#X obj 174 245 pack 0 \$2;
#X msg 125 245 0;
#X obj 337 145 inlet;
#X obj 377 145 inlet;
#X obj 421 145 inlet;
#X obj 461 145 inlet;
#X obj 314 239 del \$2;
#X obj 314 265 f \$4;
#X obj 390 268 * \$1;
#X obj 389 299 pack 0 \$3;
#X obj 472 301 pack 0 \$5;
#X obj 518 269 inlet;
#X obj 354 358 line~;
#X obj 354 386 outlet~;
#X obj 313 299 * 0.5;
#X connect 0 0 4 0;
#X connect 0 1 5 0;
#X connect 1 0 2 0;
#X connect 2 0 3 0;
#X connect 2 0 17 0;
#X connect 2 1 0 0;
#X connect 3 0 13 0;
#X connect 4 0 5 0;
#X connect 4 1 8 0;
#X connect 5 0 6 0;
#X connect 5 0 13 0;
#X connect 6 0 7 0;
#X connect 7 0 19 0;
#X connect 8 0 19 0;
#X connect 9 0 15 1;
#X connect 9 0 6 1;
#X connect 10 0 13 1;
#X connect 10 0 7 1;
#X connect 11 0 16 1;
#X connect 12 0 14 1;
#X connect 13 0 14 0;
#X connect 14 0 21 0;
#X connect 15 0 16 0;
#X connect 16 0 19 0;
#X connect 17 0 19 0;
#X connect 18 0 17 1;
#X connect 19 0 20 0;
#X connect 21 0 15 0;
#X restore 424 544 pd envelope_adsr;
#X obj 580 140 loadbang;
#X obj 395 448 tgl 15 0 empty empty empty 17 7 0 10 -262144 -1 -1 0
1;
#X msg 373 406 1;
#X msg 405 406 0;
#X msg 609 285 1;
#X obj 84 303 inlet;
#X obj 280 1111 outlet~;
#X obj 479 353 inlet;
#X msg 155 270 1;
#N canvas 305 377 677 545 number_of_events 0;
#X msg 65 383 1;
#X msg 101 383 2;
#X msg 138 383 3;
#X msg 217 383 5;
#X msg 256 383 6;
#X obj 148 257 sel 0 1;
#X obj 89 304 random 3;
#X obj 89 343 sel 0 1 2;
#X obj 148 227 random 2;
#X obj 290 490 outlet;
#X obj 24 12 inlet;
#X obj 191 340 sel 0 1 2;
#X obj 117 12 inlet;
#X obj 211 27 loadbang;
#X obj 211 107 sel 0 1;
#X msg 211 54 0;
#X floatatom 211 80 5 0 1 0 - - -;
#X obj 129 75 bng 15 250 50 0 empty empty empty 17 7 0 10 -262144 -1
-1;
#X obj 374 339 sel 0 1 2;
#X msg 361 382 7;
#X msg 400 382 9;
#X obj 428 256 sel 0 1;
#X obj 428 226 random 2;
#X obj 494 339 sel 0 1 2;
#X text 93 228 slow;
#X text 373 228 fast;
#X obj 148 197 bng 15 250 50 0 empty empty empty 17 7 0 10 -262144
-1 -1;
#X obj 428 199 bng 15 250 50 0 empty empty empty 17 7 0 10 -262144
-1 -1;
#X obj 191 301 random 2;
#X msg 481 382 0;
#X msg 439 382 0;
#X msg 178 383 4;
#X obj 494 300 random 4;
#X obj 374 300 random 3;
#X msg 520 382 11;
#X msg 559 382 13;
#X connect 0 0 9 0;
#X connect 1 0 9 0;
#X connect 2 0 9 0;
#X connect 3 0 9 0;
#X connect 4 0 9 0;
#X connect 5 0 6 0;
#X connect 5 1 28 0;
#X connect 6 0 7 0;
#X connect 7 0 0 0;
#X connect 7 1 1 0;
#X connect 7 2 2 0;
#X connect 8 0 5 0;
#X connect 10 0 17 0;
#X connect 11 0 31 0;
#X connect 11 1 3 0;
#X connect 11 2 4 0;
#X connect 12 0 16 0;
#X connect 13 0 15 0;
#X connect 14 0 26 0;
#X connect 14 1 27 0;
#X connect 15 0 16 0;
#X connect 16 0 14 0;
#X connect 17 0 16 0;
#X connect 18 0 19 0;
#X connect 18 1 20 0;
#X connect 18 2 30 0;
#X connect 18 3 30 0;
#X connect 19 0 9 0;
#X connect 20 0 9 0;
#X connect 21 0 33 0;
#X connect 21 1 32 0;
#X connect 22 0 21 0;
#X connect 23 0 29 0;
#X connect 23 1 34 0;
#X connect 23 2 35 0;
#X connect 23 3 29 0;
#X connect 26 0 8 0;
#X connect 27 0 22 0;
#X connect 28 0 11 0;
#X connect 29 0 9 0;
#X connect 30 0 9 0;
#X connect 31 0 9 0;
#X connect 32 0 23 0;
#X connect 33 0 18 0;
#X connect 34 0 9 0;
#X connect 35 0 9 0;
#X restore 142 187 pd number_of_events;
#X obj 405 373 del 250;
#X obj 142 128 metro;
#X obj 142 159 bng 15 250 50 0 empty empty empty 17 7 0 10 -262144
-1 -1;
#X obj 223 109 * 16;
#X floatatom 223 84 5 0 0 0 - - -;
#X obj 84 336 bng 15 250 50 0 empty empty empty 17 7 0 10 -262144 -1
-1;
#X obj 142 96 r toggle;
#X msg 570 284 350;
#X obj 580 220 sel 0 1;
#X msg 580 167 0;
#X floatatom 580 193 5 0 1 0 - - -;
#X obj 432 130 r state;
#X msg 581 318 1;
#X floatatom 364 327 5 0 0 0 - - -;
#X obj 527 727 metro 3;
#X obj 527 777 snapshot~;
#X floatatom 527 803 5 0 0 0 - - -;
#X obj 527 859 s LFO_3;
#X obj 550 751 osc~ 5;
#X obj 138 465 +;
#X floatatom 138 494 5 0 0 0 - - -;
#X obj 136 434 r LFO_3;
#X obj 527 831 * 0.75;
#X obj 223 56 r global_metro;
#X msg 662 315 15;
#X msg 647 285 6500;
#X obj 304 586 phasor~;
#X obj 264 443 sel 0 1;
#X floatatom 322 519 5 0 0 0 - - -;
#X msg 322 494 0;
#X msg 355 493 1.5;
#X obj 304 558 *~;
#X obj 25 683 phasor~;
#X obj 100 682 phasor~;
#X obj 100 655 * -1;
#X obj 36 824 +~;
#X msg 132 619 0;
#X obj 105 708 *~ 2;
#X obj 25 716 *~ 2;
#X obj 25 743 -~ 1;
#X obj 104 736 -~ 1;
#X obj 27 775 clip~ 0 1;
#X obj 104 767 clip~ 0 1;
#X obj 135 585 loadbang;
#X obj 247 557 *~;
#X floatatom 262 520 5 0 0 0 - - -;
#X msg 263 495 1;
#X obj 280 974 *~ 0.5;
#X obj 115 937 *~;
#X floatatom 113 899 5 0 0 0 - - -;
#X obj 122 800 r state;
#X obj 121 825 sel 0 1;
#X obj 205 870 vline~;
#X msg 215 832 0 1000;
#X obj 296 718 vline~;
#X obj 277 753 *~;
#X msg 316 689 0 1000;
#X msg 307 667 0.7 2500;
#X obj 440 1005 hv.reverb;
#X msg 565 1006 feedback 90;
#X obj 608 945 loadbang;
#X msg 610 1030 damp 70;
#X msg 500 976 wet-gain 95;
#X obj 112 875 snapshot~;
#X obj 101 853 metro 3;
#X msg 591 1065 dry-gain 95;
#X msg 206 810 0.75 3000;
#X msg 367 289 1;
#X msg 405 289 2;
#X obj 199 420 *;
#X connect 0 0 3 0;
#X connect 0 0 104 0;
#X connect 1 0 0 1;
#X connect 2 0 1 0;
#X connect 3 0 12 0;
#X connect 4 0 31 0;
#X connect 4 0 93 0;
#X connect 5 0 0 2;
#X connect 6 0 90 0;
#X connect 7 0 8 0;
#X connect 8 0 0 0;
#X connect 8 0 27 0;
#X connect 8 0 35 0;
#X connect 9 0 7 1;
#X connect 10 0 33 0;
#X connect 10 0 11 0;
#X connect 11 0 7 3;
#X connect 11 0 38 1;
#X connect 12 0 13 0;
#X connect 14 0 24 5;
#X connect 15 0 24 4;
#X connect 16 0 24 3;
#X connect 17 0 24 1;
#X connect 18 0 24 2;
#X connect 24 0 4 1;
#X connect 25 0 44 0;
#X connect 26 0 24 0;
#X connect 27 0 26 0;
#X connect 28 0 26 0;
#X connect 29 0 15 0;
#X connect 30 0 7 0;
#X connect 30 0 40 0;
#X connect 32 0 17 0;
#X connect 33 0 7 2;
#X connect 34 0 9 0;
#X connect 35 0 28 0;
#X connect 36 0 37 0;
#X connect 37 0 34 0;
#X connect 38 0 36 1;
#X connect 39 0 38 0;
#X connect 41 0 36 0;
#X connect 42 0 18 0;
#X connect 42 0 16 0;
#X connect 42 0 35 1;
#X connect 43 0 42 0;
#X connect 43 0 29 0;
#X connect 43 0 60 0;
#X connect 43 0 102 0;
#X connect 43 1 59 0;
#X connect 43 1 29 0;
#X connect 43 1 47 0;
#X connect 43 1 103 0;
#X connect 44 0 45 0;
#X connect 45 0 43 0;
#X connect 46 0 45 0;
#X connect 46 0 34 1;
#X connect 46 0 62 0;
#X connect 47 0 18 0;
#X connect 47 0 16 0;
#X connect 48 0 104 1;
#X connect 49 0 50 0;
#X connect 50 0 51 0;
#X connect 51 0 57 0;
#X connect 53 0 50 0;
#X connect 54 0 55 0;
#X connect 55 0 79 0;
#X connect 55 0 66 0;
#X connect 55 0 69 0;
#X connect 55 0 67 0;
#X connect 56 0 54 0;
#X connect 57 0 52 0;
#X connect 58 0 39 0;
#X connect 59 0 14 0;
#X connect 60 0 14 0;
#X connect 61 0 90 0;
#X connect 62 0 64 0;
#X connect 62 0 91 0;
#X connect 62 1 65 0;
#X connect 62 1 81 0;
#X connect 62 1 92 0;
#X connect 63 0 66 1;
#X connect 64 0 63 0;
#X connect 64 0 80 0;
#X connect 65 0 63 0;
#X connect 66 0 61 0;
#X connect 67 0 73 0;
#X connect 68 0 72 0;
#X connect 69 0 68 0;
#X connect 70 0 83 0;
#X connect 71 0 67 1;
#X connect 71 0 68 1;
#X connect 72 0 75 0;
#X connect 73 0 74 0;
#X connect 74 0 76 0;
#X connect 75 0 77 0;
#X connect 76 0 70 0;
#X connect 77 0 70 1;
#X connect 78 0 71 0;
#X connect 78 0 49 0;
#X connect 78 0 99 0;
#X connect 79 0 6 0;
#X connect 80 0 79 1;
#X connect 81 0 80 0;
#X connect 82 0 4 0;
#X connect 83 0 82 0;
#X connect 85 0 86 0;
#X connect 86 0 101 0;
#X connect 86 1 88 0;
#X connect 87 0 83 1;
#X connect 87 0 98 0;
#X connect 88 0 87 0;
#X connect 89 0 90 1;
#X connect 90 0 82 0;
#X connect 91 0 89 0;
#X connect 92 0 89 0;
#X connect 93 0 31 0;
#X connect 93 1 31 0;
#X connect 94 0 93 1;
#X connect 95 0 96 0;
#X connect 95 0 94 0;
#X connect 95 0 100 0;
#X connect 95 0 97 0;
#X connect 96 0 93 1;
#X connect 97 0 93 1;
#X connect 98 0 84 0;
#X connect 99 0 98 0;
#X connect 100 0 93 1;
#X connect 101 0 87 0;
#X connect 102 0 48 0;
#X connect 103 0 48 0;
#X connect 104 0 54 1;
#X restore 95 741 pd leads;
#X obj 95 713 r counter;
#X obj 187 584 vsl 15 128 0 1 0 0 empty empty empty 0 -9 0 10 -258113
-1 -1 9779 1;
#X floatatom 187 723 5 0 0 0 - - -;
#X obj 379 581 vsl 15 128 0 1 0 0 empty empty empty 0 -9 0 10 -4032
-1 -1 9525 1;
#X floatatom 379 721 5 0 0 0 - - -;
#X obj 15 247 r set_global_root;
#X text 339 43 MAIN TOGGLE;
#X text 121 675 LEADS;
#X text 324 617 PADS;
#N canvas 1285 403 436 449 random_modulate 0;
#X floatatom 41 363 5 0 0 0 - - -;
#X obj 41 212 bng 15 250 50 0 empty empty empty 17 7 0 10 -262144 -1
-1;
#X floatatom 150 157 5 0 0 0 - - -;
#N canvas 186 80 299 346 randomTrigger 0;
#X obj 53 142 <= 1;
#X obj 54 58 random 1000;
#X obj 54 81 / 1000;
#X floatatom 172 99 5 0 1 0 - - -;
#X floatatom 53 106 5 0 0 0 - - -;
#X floatatom 53 188 5 0 0 0 - - -;
#X obj 42 228 select 1;
#X obj 43 19 inlet;
#X obj 177 41 inlet;
#X obj 42 261 outlet;
#X connect 0 0 5 0;
#X connect 1 0 2 0;
#X connect 2 0 4 0;
#X connect 3 0 0 1;
#X connect 4 0 0 0;
#X connect 5 0 6 0;
#X connect 6 0 9 0;
#X connect 7 0 1 0;
#X connect 8 0 3 0;
#X restore 41 185 pd randomTrigger;
#X obj 150 103 loadbang;
#X obj 195 138 r probBass @hv_param 0 0.75 0.2;
#X obj 41 122 metro;
#X obj 41 92 loadbang;
#X obj 110 103 * 16;
#X obj 41 155 bng 15 250 50 0 empty empty empty 17 7 0 10 -262144 -1
-1;
#X floatatom 110 62 5 0 0 0 - - -;
#X obj 41 236 random 3;
#X obj 110 26 inlet;
#X obj 41 396 outlet;
#X obj 155 217 inlet;
#X obj 214 212 r state;
#X obj 214 242 sel 0 1;
#X obj 41 333 +;
#X msg 241 313 2;
#X msg 206 313 0;
#X obj 206 287 bng 15 250 50 0 empty empty empty 17 7 0 10 -262144
-1 -1;
#X obj 241 287 bng 15 250 50 0 empty empty empty 17 7 0 10 -262144
-1 -1;
#X msg 150 129 0.25;
#X floatatom 59 306 5 0 0 0 - - -;
#X connect 0 0 13 0;
#X connect 1 0 11 0;
#X connect 2 0 3 1;
#X connect 3 0 1 0;
#X connect 4 0 22 0;
#X connect 5 0 2 0;
#X connect 6 0 9 0;
#X connect 7 0 6 0;
#X connect 8 0 6 1;
#X connect 9 0 3 0;
#X connect 10 0 8 0;
#X connect 11 0 17 0;
#X connect 12 0 10 0;
#X connect 14 0 11 1;
#X connect 15 0 16 0;
#X connect 16 0 20 0;
#X connect 16 1 21 0;
#X connect 17 0 0 0;
#X connect 18 0 23 0;
#X connect 19 0 23 0;
#X connect 20 0 19 0;
#X connect 21 0 18 0;
#X connect 22 0 2 0;
#X connect 23 0 17 1;
#X restore 42 302 pd random_modulate;
#X obj 578 124 s global_metro;
#X obj 42 276 r global_metro;
#X obj 165 244 loadbang;
#X text 7 213 Sets global root pitch and random modulation.;
#X obj 765 145 s state;
#X msg 765 74 0;
#X obj 641 49 r set_game_state;
#X obj 765 50 loadbang;
#X text 630 23 Sets game state (0 or 1).;
#X msg 52 351 0;
#N canvas 0 189 1012 920 pads_var1 1;
#X floatatom 801 487 5 0 0 0 - - -;
#X floatatom 782 458 5 0 0 0 - - -;
#X floatatom 765 433 5 0 0 0 - - -;
#X floatatom 730 386 5 0 0 0 - - -;
#X floatatom 748 411 5 0 0 0 - - -;
#X text 768 384 peak level;
#X text 789 406 attack duration (ms);
#X text 803 428 decay duration (ms);
#X text 823 454 sustain level (% of peak);
#X text 835 484 release duration (ms);
#N canvas 251 52 707 458 envelope_adsr 0;
#X obj 209 53 moses;
#X obj 112 56 inlet;
#X obj 112 92 sel 0;
#X msg 111 130 stop;
#X obj 209 93 t b b;
#X obj 258 125 t b;
#X obj 174 209 f \$1;
#X obj 174 245 pack 0 \$2;
#X msg 125 245 0;
#X obj 337 145 inlet;
#X obj 377 145 inlet;
#X obj 421 145 inlet;
#X obj 461 145 inlet;
#X obj 314 239 del \$2;
#X obj 314 265 f \$4;
#X obj 390 268 * \$1;
#X obj 389 299 pack 0 \$3;
#X obj 472 301 pack 0 \$5;
#X obj 518 269 inlet;
#X obj 354 358 line~;
#X obj 354 386 outlet~;
#X obj 313 299 * 0.5;
#X connect 0 0 4 0;
#X connect 0 1 5 0;
#X connect 1 0 2 0;
#X connect 2 0 3 0;
#X connect 2 0 17 0;
#X connect 2 1 0 0;
#X connect 3 0 13 0;
#X connect 4 0 5 0;
#X connect 4 1 8 0;
#X connect 5 0 6 0;
#X connect 5 0 13 0;
#X connect 6 0 7 0;
#X connect 7 0 19 0;
#X connect 8 0 19 0;
#X connect 9 0 15 1;
#X connect 9 0 6 1;
#X connect 10 0 13 1;
#X connect 10 0 7 1;
#X connect 11 0 16 1;
#X connect 12 0 14 1;
#X connect 13 0 14 0;
#X connect 14 0 21 0;
#X connect 15 0 16 0;
#X connect 16 0 19 0;
#X connect 17 0 19 0;
#X connect 18 0 17 1;
#X connect 19 0 20 0;
#X connect 21 0 15 0;
#X restore 707 525 pd envelope_adsr;
#X obj 817 297 loadbang;
#X obj 681 424 tgl 15 0 empty empty empty 17 7 0 10 -262144 -1 -1 0
1;
#X obj 546 67 bng 15 250 50 0 empty empty empty 17 7 0 10 -262144 -1
-1;
#X msg 659 382 1;
#X msg 691 382 0;
#X msg 888 339 1;
#X obj 691 349 del 1000;
#X msg 847 339 1500;
#X msg 931 341 6500;
#X obj 525 25 inlet;
#X obj 72 440 osc~;
#N canvas 105 236 756 715 note_from_scale 0;
#X floatatom 131 242 5 0 0 0 - - -;
#X obj 131 208 tabread \$0-scale;
#X floatatom 131 178 5 0 5 0 - - -;
#X obj 161 292 + 0;
#X obj 179 242 r root;
#X floatatom 161 319 5 0 0 0 - - -;
#X obj 161 347 mtof;
#X obj 91 60 inlet;
#X obj 151 438 outlet;
#X obj 179 266 + 0;
#X obj 243 247 inlet;
#X text 136 61 scale index;
#X text 287 248 transpose;
#X connect 0 0 3 0;
#X connect 1 0 0 0;
#X connect 2 0 1 0;
#X connect 3 0 5 0;
#X connect 4 0 9 0;
#X connect 5 0 6 0;
#X connect 6 0 8 0;
#X connect 7 0 2 0;
#X connect 9 0 3 1;
#X connect 10 0 9 1;
#X restore 72 333 pd note_from_scale;
#X msg 72 300 0;
#X floatatom 28 352 5 0 0 0 - - -;
#X obj 28 376 ftom;
#X floatatom 28 399 5 0 0 0 - - -;
#X obj 217 585 *~;
#X obj 258 439 osc~;
#X floatatom 214 351 5 0 0 0 - - -;
#X obj 214 375 ftom;
#X floatatom 214 398 5 0 0 0 - - -;
#X msg 258 300 2;
#X obj 439 438 osc~;
#X floatatom 395 350 5 0 0 0 - - -;
#X obj 395 374 ftom;
#X floatatom 395 397 5 0 0 0 - - -;
#X msg 439 298 4;
#X msg 475 298 5;
#X floatatom 247 148 5 0 5 0 - - -;
#X msg 110 300 1;
#X obj 247 187 sel 0 1 2 3 4;
#X msg 293 300 3;
#X obj 247 117 random 5;
#N canvas 105 236 756 715 note_from_scale 0;
#X floatatom 131 242 5 0 0 0 - - -;
#X obj 131 208 tabread \$0-scale;
#X floatatom 131 178 5 0 5 0 - - -;
#X obj 161 292 + 0;
#X obj 179 242 r root;
#X floatatom 161 319 5 0 0 0 - - -;
#X obj 161 347 mtof;
#X obj 91 60 inlet;
#X obj 151 438 outlet;
#X obj 179 266 + 0;
#X obj 243 247 inlet;
#X text 136 61 scale index;
#X text 287 248 transpose;
#X connect 0 0 3 0;
#X connect 1 0 0 0;
#X connect 2 0 1 0;
#X connect 3 0 5 0;
#X connect 4 0 9 0;
#X connect 5 0 6 0;
#X connect 6 0 8 0;
#X connect 7 0 2 0;
#X connect 9 0 3 1;
#X connect 10 0 9 1;
#X restore 258 332 pd note_from_scale;
#N canvas 105 236 756 715 note_from_scale 0;
#X floatatom 131 242 5 0 0 0 - - -;
#X obj 131 208 tabread \$0-scale;
#X floatatom 131 178 5 0 5 0 - - -;
#X obj 161 292 + 0;
#X obj 179 242 r root;
#X floatatom 161 319 5 0 0 0 - - -;
#X obj 161 347 mtof;
#X obj 91 60 inlet;
#X obj 151 438 outlet;
#X obj 179 266 + 0;
#X obj 243 247 inlet;
#X text 136 61 scale index;
#X text 287 248 transpose;
#X connect 0 0 3 0;
#X connect 1 0 0 0;
#X connect 2 0 1 0;
#X connect 3 0 5 0;
#X connect 4 0 9 0;
#X connect 5 0 6 0;
#X connect 6 0 8 0;
#X connect 7 0 2 0;
#X connect 9 0 3 1;
#X connect 10 0 9 1;
#X restore 439 331 pd note_from_scale;
#X obj 218 844 outlet~;
#X obj 790 339 inlet;
#X obj 740 615 metro 3;
#X obj 740 665 snapshot~;
#X floatatom 740 691 5 0 0 0 - - -;
#X obj 112 388 +;
#X floatatom 112 417 5 0 0 0 - - -;
#X obj 311 387 +;
#X floatatom 311 416 5 0 0 0 - - -;
#X obj 486 385 +;
#X floatatom 486 414 5 0 0 0 - - -;
#X msg 505 246 12;
#X obj 505 222 loadbang;
#X obj 740 747 s LFO_1;
#X obj 88 358 r LFO_1;
#X obj 287 357 r LFO_1;
#X obj 462 355 r LFO_1;
#X obj 740 719 * 0.75;
#X obj 763 639 osc~ 1;
#X obj 218 806 fx.chorus~;
#X obj 218 515 *~ 0.33;
#N canvas 291 193 645 473 FM_synth 0;
#X obj 66 363 osc~;
#X obj 266 245 osc~ 40;
#X text 118 83 freq;
#X obj 74 312 +~;
#X text 475 173 modulation index;
#X text 298 77 harmonicity;
#X obj 253 141 *~;
#X obj 404 228 *~;
#X obj 266 282 *~;
#X obj 66 384 outlet~;
#X obj 74 80 inlet~;
#X obj 296 101 inlet~;
#X obj 429 171 inlet~;
#X connect 0 0 9 0;
#X connect 1 0 8 0;
#X connect 3 0 0 0;
#X connect 6 0 1 0;
#X connect 6 0 7 0;
#X connect 7 0 8 1;
#X connect 8 0 3 1;
#X connect 10 0 6 0;
#X connect 10 0 3 0;
#X connect 11 0 6 1;
#X connect 12 0 7 1;
#X restore 427 620 pd FM_synth;
#X floatatom 463 576 5 0 0 0 - - -;
#X floatatom 541 592 5 0 0 0 - - -;
#N canvas 291 193 645 473 FM_synth 0;
#X obj 66 363 osc~;
#X obj 266 245 osc~ 40;
#X text 118 83 freq;
#X obj 74 312 +~;
#X text 475 173 modulation index;
#X text 298 77 harmonicity;
#X obj 253 141 *~;
#X obj 404 228 *~;
#X obj 266 282 *~;
#X obj 66 384 outlet~;
#X obj 74 80 inlet~;
#X obj 296 101 inlet~;
#X obj 429 171 inlet~;
#X connect 0 0 9 0;
#X connect 1 0 8 0;
#X connect 3 0 0 0;
#X connect 6 0 1 0;
#X connect 6 0 7 0;
#X connect 7 0 8 1;
#X connect 8 0 3 1;
#X connect 10 0 6 0;
#X connect 10 0 3 0;
#X connect 11 0 6 1;
#X connect 12 0 7 1;
#X restore 393 742 pd FM_synth;
#X floatatom 429 698 5 0 0 0 - - -;
#X floatatom 507 714 5 0 0 0 - - -;
#N canvas 291 193 645 473 FM_synth 0;
#X obj 66 363 osc~;
#X obj 266 245 osc~ 40;
#X text 118 83 freq;
#X obj 74 312 +~;
#X text 475 173 modulation index;
#X text 298 77 harmonicity;
#X obj 253 141 *~;
#X obj 404 228 *~;
#X obj 266 282 *~;
#X obj 66 384 outlet~;
#X obj 74 80 inlet~;
#X obj 296 101 inlet~;
#X obj 429 171 inlet~;
#X connect 0 0 9 0;
#X connect 1 0 8 0;
#X connect 3 0 0 0;
#X connect 6 0 1 0;
#X connect 6 0 7 0;
#X connect 7 0 8 1;
#X connect 8 0 3 1;
#X connect 10 0 6 0;
#X connect 10 0 3 0;
#X connect 11 0 6 1;
#X connect 12 0 7 1;
#X restore 62 708 pd FM_synth;
#X floatatom 98 664 5 0 0 0 - - -;
#X floatatom 176 680 5 0 0 0 - - -;
#X obj 391 776 *~ 0.1;
#X obj 97 620 random 100;
#X obj 454 528 random 100;
#X obj 387 667 random 100;
#X obj 555 655 random 9;
#X obj 555 680 + 1;
#X obj 608 558 random 9;
#X obj 608 583 + 1;
#X obj 245 626 random 9;
#X obj 245 651 + 1;
#X obj 919 278 * 32;
#X obj 911 248 r global_metro;
#X connect 0 0 10 5;
#X connect 1 0 10 4;
#X connect 2 0 10 3;
#X connect 3 0 10 1;
#X connect 4 0 10 2;
#X connect 10 0 27 1;
#X connect 11 0 18 0;
#X connect 11 0 16 0;
#X connect 11 0 19 0;
#X connect 12 0 10 0;
#X connect 13 0 14 0;
#X connect 13 0 17 0;
#X connect 13 0 43 0;
#X connect 13 0 77 0;
#X connect 13 0 78 0;
#X connect 13 0 79 0;
#X connect 13 0 84 0;
#X connect 13 0 82 0;
#X connect 13 0 80 0;
#X connect 14 0 12 0;
#X connect 15 0 12 0;
#X connect 16 0 1 0;
#X connect 17 0 15 0;
#X connect 18 0 4 0;
#X connect 18 0 2 0;
#X connect 18 0 17 1;
#X connect 19 0 0 0;
#X connect 20 0 13 0;
#X connect 21 0 66 0;
#X connect 22 0 24 0;
#X connect 22 0 51 1;
#X connect 23 0 22 0;
#X connect 24 0 25 0;
#X connect 24 0 73 0;
#X connect 25 0 26 0;
#X connect 27 0 65 0;
#X connect 28 0 66 0;
#X connect 29 0 30 0;
#X connect 29 0 70 0;
#X connect 30 0 31 0;
#X connect 32 0 44 0;
#X connect 33 0 66 0;
#X connect 34 0 35 0;
#X connect 34 0 67 0;
#X connect 35 0 36 0;
#X connect 37 0 45 0;
#X connect 38 0 45 0;
#X connect 39 0 41 0;
#X connect 40 0 22 0;
#X connect 41 0 23 0;
#X connect 41 0 32 0;
#X connect 41 0 37 0;
#X connect 41 1 23 0;
#X connect 41 1 32 0;
#X connect 41 1 38 0;
#X connect 41 2 32 0;
#X connect 41 2 38 0;
#X connect 41 2 40 0;
#X connect 41 3 40 0;
#X connect 41 3 32 0;
#X connect 41 3 37 0;
#X connect 41 4 40 0;
#X connect 41 4 42 0;
#X connect 41 4 37 0;
#X connect 41 5 40 0;
#X connect 41 5 42 0;
#X connect 41 5 38 0;
#X connect 42 0 44 0;
#X connect 43 0 39 0;
#X connect 44 0 29 0;
#X connect 44 0 53 1;
#X connect 45 0 34 0;
#X connect 45 0 55 1;
#X connect 47 0 3 0;
#X connect 48 0 49 0;
#X connect 49 0 50 0;
#X connect 50 0 63 0;
#X connect 51 0 52 0;
#X connect 52 0 21 0;
#X connect 53 0 54 0;
#X connect 54 0 28 0;
#X connect 55 0 56 0;
#X connect 56 0 33 0;
#X connect 57 0 45 1;
#X connect 57 0 44 1;
#X connect 57 0 22 1;
#X connect 58 0 57 0;
#X connect 58 0 48 0;
#X connect 60 0 51 0;
#X connect 61 0 53 0;
#X connect 62 0 55 0;
#X connect 63 0 59 0;
#X connect 64 0 49 0;
#X connect 65 0 46 0;
#X connect 66 0 27 0;
#X connect 67 0 76 0;
#X connect 68 0 67 1;
#X connect 69 0 67 2;
#X connect 70 0 76 0;
#X connect 71 0 70 1;
#X connect 72 0 70 2;
#X connect 73 0 76 0;
#X connect 74 0 73 1;
#X connect 75 0 73 2;
#X connect 76 0 27 0;
#X connect 77 0 74 0;
#X connect 78 0 68 0;
#X connect 79 0 71 0;
#X connect 80 0 81 0;
#X connect 81 0 72 0;
#X connect 82 0 83 0;
#X connect 83 0 69 0;
#X connect 84 0 85 0;
#X connect 85 0 75 0;
#X connect 86 0 0 0;
#X connect 87 0 86 0;
#X restore 273 815 pd pads_var1;
#X obj 273 792 bng 15 250 50 0 empty empty empty 17 7 0 10 -262144
-1 -1;
#X obj 426 581 vsl 15 128 0 1 0 0 empty empty empty 0 -9 0 10 -4032
-1 -1 12573 1;
#X floatatom 426 721 5 0 0 0 - - -;
#X obj 372 792 bng 15 250 50 0 empty empty empty 17 7 0 10 -262144
-1 -1;
#X obj 273 738 random 2;
#X obj 273 764 sel 0 1;
#N canvas 275 25 1012 920 pads_var2 0;
#X floatatom 801 487 5 0 0 0 - - -;
#X floatatom 782 458 5 0 0 0 - - -;
#X floatatom 765 433 5 0 0 0 - - -;
#X floatatom 730 386 5 0 0 0 - - -;
#X floatatom 748 411 5 0 0 0 - - -;
#X text 768 384 peak level;
#X text 789 406 attack duration (ms);
#X text 803 428 decay duration (ms);
#X text 823 454 sustain level (% of peak);
#X text 835 484 release duration (ms);
#N canvas 251 52 707 458 envelope_adsr 0;
#X obj 209 53 moses;
#X obj 112 56 inlet;
#X obj 112 92 sel 0;
#X msg 111 130 stop;
#X obj 209 93 t b b;
#X obj 258 125 t b;
#X obj 174 209 f \$1;
#X obj 174 245 pack 0 \$2;
#X msg 125 245 0;
#X obj 337 145 inlet;
#X obj 377 145 inlet;
#X obj 421 145 inlet;
#X obj 461 145 inlet;
#X obj 314 239 del \$2;
#X obj 314 265 f \$4;
#X obj 390 268 * \$1;
#X obj 389 299 pack 0 \$3;
#X obj 472 301 pack 0 \$5;
#X obj 518 269 inlet;
#X obj 354 358 line~;
#X obj 354 386 outlet~;
#X obj 313 299 * 0.5;
#X connect 0 0 4 0;
#X connect 0 1 5 0;
#X connect 1 0 2 0;
#X connect 2 0 3 0;
#X connect 2 0 17 0;
#X connect 2 1 0 0;
#X connect 3 0 13 0;
#X connect 4 0 5 0;
#X connect 4 1 8 0;
#X connect 5 0 6 0;
#X connect 5 0 13 0;
#X connect 6 0 7 0;
#X connect 7 0 19 0;
#X connect 8 0 19 0;
#X connect 9 0 15 1;
#X connect 9 0 6 1;
#X connect 10 0 13 1;
#X connect 10 0 7 1;
#X connect 11 0 16 1;
#X connect 12 0 14 1;
#X connect 13 0 14 0;
#X connect 14 0 21 0;
#X connect 15 0 16 0;
#X connect 16 0 19 0;
#X connect 17 0 19 0;
#X connect 18 0 17 1;
#X connect 19 0 20 0;
#X connect 21 0 15 0;
#X restore 707 525 pd envelope_adsr;
#X obj 817 297 loadbang;
#X obj 681 424 tgl 15 0 empty empty empty 17 7 0 10 -262144 -1 -1 0
1;
#X obj 546 66 bng 15 250 50 0 empty empty empty 17 7 0 10 -262144 -1
-1;
#X msg 659 382 1;
#X msg 691 382 0;
#X msg 888 339 1;
#X obj 691 349 del 1000;
#X msg 847 339 1500;
#X msg 931 341 6500;
#X obj 525 25 inlet;
#N canvas 1367 -945 756 715 note_from_scale 0;
#X floatatom 131 242 5 0 0 0 - - -;
#X obj 131 208 tabread \$0-scale;
#X floatatom 131 178 5 0 5 0 - - -;
#X obj 161 292 + 0;
#X obj 179 242 r root;
#X floatatom 161 319 5 0 0 0 - - -;
#X obj 161 347 mtof;
#X obj 91 60 inlet;
#X obj 151 438 outlet;
#X obj 179 266 + 0;
#X obj 243 247 inlet;
#X text 136 61 scale index;
#X text 287 248 transpose;
#X connect 0 0 3 0;
#X connect 1 0 0 0;
#X connect 2 0 1 0;
#X connect 3 0 5 0;
#X connect 4 0 9 0;
#X connect 5 0 6 0;
#X connect 6 0 8 0;
#X connect 7 0 2 0;
#X connect 9 0 3 1;
#X connect 10 0 9 1;
#X restore 72 333 pd note_from_scale;
#X msg 72 300 0;
#X floatatom 28 352 5 0 0 0 - - -;
#X obj 28 376 ftom;
#X floatatom 28 399 5 0 0 0 - - -;
#X obj 218 645 *~;
#X floatatom 214 351 5 0 0 0 - - -;
#X obj 214 375 ftom;
#X floatatom 214 398 5 0 0 0 - - -;
#X msg 258 300 2;
#X floatatom 395 350 5 0 0 0 - - -;
#X obj 395 374 ftom;
#X floatatom 395 397 5 0 0 0 - - -;
#X msg 439 298 4;
#X msg 475 298 5;
#X floatatom 247 148 5 0 5 0 - - -;
#X msg 110 300 1;
#X obj 247 187 sel 0 1 2 3 4;
#X msg 293 300 3;
#X obj 247 117 random 5;
#N canvas 1006 -883 756 715 note_from_scale 0;
#X floatatom 131 242 5 0 0 0 - - -;
#X obj 131 208 tabread \$0-scale;
#X floatatom 131 178 5 0 5 0 - - -;
#X obj 161 292 + 0;
#X obj 179 242 r root;
#X floatatom 161 319 5 0 0 0 - - -;
#X obj 161 347 mtof;
#X obj 91 60 inlet;
#X obj 151 438 outlet;
#X obj 179 266 + 0;
#X obj 243 247 inlet;
#X text 136 61 scale index;
#X text 287 248 transpose;
#X connect 0 0 3 0;
#X connect 1 0 0 0;
#X connect 2 0 1 0;
#X connect 3 0 5 0;
#X connect 4 0 9 0;
#X connect 5 0 6 0;
#X connect 6 0 8 0;
#X connect 7 0 2 0;
#X connect 9 0 3 1;
#X connect 10 0 9 1;
#X restore 258 332 pd note_from_scale;
#N canvas 105 236 756 715 note_from_scale 0;
#X floatatom 131 242 5 0 0 0 - - -;
#X obj 131 208 tabread \$0-scale;
#X floatatom 131 178 5 0 5 0 - - -;
#X obj 161 292 + 0;
#X obj 179 242 r root;
#X floatatom 161 319 5 0 0 0 - - -;
#X obj 161 347 mtof;
#X obj 91 60 inlet;
#X obj 151 438 outlet;
#X obj 179 266 + 0;
#X obj 243 247 inlet;
#X text 136 61 scale index;
#X text 287 248 transpose;
#X connect 0 0 3 0;
#X connect 1 0 0 0;
#X connect 2 0 1 0;
#X connect 3 0 5 0;
#X connect 4 0 9 0;
#X connect 5 0 6 0;
#X connect 6 0 8 0;
#X connect 7 0 2 0;
#X connect 9 0 3 1;
#X connect 10 0 9 1;
#X restore 439 331 pd note_from_scale;
#X obj 790 339 inlet;
#X obj 740 615 metro 3;
#X obj 740 665 snapshot~;
#X floatatom 740 691 5 0 0 0 - - -;
#X obj 740 719 * 0.075;
#X obj 112 388 +;
#X floatatom 112 417 5 0 0 0 - - -;
#X obj 311 387 +;
#X floatatom 311 416 5 0 0 0 - - -;
#X obj 486 385 +;
#X floatatom 486 414 5 0 0 0 - - -;
#X obj 505 222 loadbang;
#X obj 439 438 phasor~;
#N canvas 124 135 364 640 flanger 0;
#X obj 75 208 +~ 1;
#X obj 75 235 *~ 0.5;
#X obj 74 417 vd~ \$0-delay1, f 16;
#X text 73 100 Low Frequency Oscillator;
#X text 203 263 Depth (ms);
#X obj 74 513 *~ 1;
#X text 87 546 y[n] = x[n] + ax[n-t];
#X text 163 487 Feedback (0-1);
#X obj 75 181 osc~ 1;
#X text 117 513 ax[n-t];
#X text 131 156 Rate (Hz);
#X obj 45 545 +~, f 4;
#X obj 75 294 *~ 1, f 9;
#X obj 74 377 +~ 0.001, f 11;
#X obj 51 18 inlet~;
#X obj 46 606 outlet~;
#X obj 79 63 delwrite~ \$0-delay1 5000;
#X obj 145 232 loadbang;
#X msg 138 261 0.818;
#X obj 147 314 loadbang;
#X msg 140 343 0.818;
#X obj 106 454 loadbang;
#X msg 99 483 0.897;
#X obj 84 126 loadbang;
#X msg 77 155 0.236;
#X connect 0 0 1 0;
#X connect 1 0 12 0;
#X connect 2 0 5 0;
#X connect 5 0 11 1;
#X connect 8 0 0 0;
#X connect 11 0 15 0;
#X connect 12 0 13 0;
#X connect 13 0 2 0;
#X connect 14 0 11 0;
#X connect 14 0 16 0;
#X connect 17 0 18 0;
#X connect 18 0 12 1;
#X connect 19 0 20 0;
#X connect 20 0 13 1;
#X connect 21 0 22 0;
#X connect 22 0 5 1;
#X connect 23 0 24 0;
#X connect 24 0 8 0;
#X restore 218 762 pd flanger;
#X obj 258 439 phasor~;
#X obj 72 440 phasor~;
#X obj 740 747 s LFO_2;
#X obj 462 355 r LFO_2;
#X obj 287 357 r LFO_2;
#X obj 88 358 r LFO_2;
#X obj 218 835 outlet~;
#N canvas 270 86 1178 553 chorus 0;
#X obj 23 259 delwrite~ \$0-delay 1000;
#X obj 221 106 osc~ 0.05;
#X obj 221 131 *~ 10;
#X obj 376 130 *~ 10;
#X obj 221 156 +~ 11;
#X obj 376 155 +~ 21;
#X obj 376 105 osc~ 0.08;
#X obj 511 135 *~ 10;
#X obj 511 110 osc~ 0.13;
#X obj 511 160 +~ 13;
#X obj 694 142 *~ 10;
#X obj 694 167 +~ 55;
#X obj 694 117 osc~ 0.03;
#X obj 839 168 +~ 87;
#X obj 839 118 osc~ 0.015;
#X obj 985 114 osc~ 0.12;
#X obj 985 164 +~ 67;
#X obj 985 139 *~ 5;
#X obj 839 143 *~ 15;
#X obj 221 184 vd~ \$0-delay;
#X obj 376 183 vd~ \$0-delay;
#X obj 511 188 vd~ \$0-delay;
#X obj 694 195 vd~ \$0-delay;
#X obj 839 196 vd~ \$0-delay;
#X obj 985 192 vd~ \$0-delay;
#X obj 61 145 nbx 5 14 -1e+37 1e+37 0 0 empty empty empty 0 -8 0 10
-262144 -1 -1 0 256;
#X obj 22 92 inlet~;
#X obj 532 418 outlet~;
#X obj 630 416 outlet~;
#X obj 271 269 *~ 0.05;
#X obj 214 270 *~ 0.95;
#X obj 1032 261 *~ 0.95;
#X obj 975 262 *~ 0.05;
#X obj 884 262 *~ 0.85;
#X obj 368 266 *~ 0.85;
#X obj 498 267 *~ 0.7;
#X obj 744 263 *~ 0.7;
#X obj 827 263 *~ 0.15;
#X obj 687 264 *~ 0.3;
#X obj 555 266 *~ 0.3;
#X obj 425 265 *~ 0.15;
#X obj 222 221 /~ 6;
#X obj 375 224 /~ 6;
#X obj 512 221 /~ 6;
#X obj 696 226 /~ 6;
#X obj 841 224 /~ 6;
#X obj 988 225 /~ 6;
#X obj 23 172 *~ 1;
#X connect 1 0 2 0;
#X connect 2 0 4 0;
#X connect 3 0 5 0;
#X connect 4 0 19 0;
#X connect 5 0 20 0;
#X connect 6 0 3 0;
#X connect 7 0 9 0;
#X connect 8 0 7 0;
#X connect 9 0 21 0;
#X connect 10 0 11 0;
#X connect 11 0 22 0;
#X connect 12 0 10 0;
#X connect 13 0 23 0;
#X connect 14 0 18 0;
#X connect 15 0 17 0;
#X connect 16 0 24 0;
#X connect 17 0 16 0;
#X connect 18 0 13 0;
#X connect 19 0 41 0;
#X connect 20 0 42 0;
#X connect 21 0 43 0;
#X connect 22 0 44 0;
#X connect 23 0 45 0;
#X connect 24 0 46 0;
#X connect 25 0 47 1;
#X connect 26 0 47 0;
#X connect 29 0 28 0;
#X connect 30 0 27 0;
#X connect 31 0 28 0;
#X connect 32 0 27 0;
#X connect 33 0 28 0;
#X connect 34 0 27 0;
#X connect 35 0 27 0;
#X connect 36 0 28 0;
#X connect 37 0 27 0;
#X connect 38 0 27 0;
#X connect 39 0 28 0;
#X connect 40 0 28 0;
#X connect 41 0 30 0;
#X connect 41 0 29 0;
#X connect 42 0 34 0;
#X connect 42 0 40 0;
#X connect 43 0 35 0;
#X connect 43 0 39 0;
#X connect 44 0 36 0;
#X connect 44 0 38 0;
#X connect 45 0 33 0;
#X connect 45 0 37 0;
#X connect 46 0 31 0;
#X connect 46 0 32 0;
#X connect 47 0 0 0;
#X restore 218 793 pd chorus;
#X msg 505 246 0;
#X obj 281 547 hsl 128 15 500 3500 0 0 empty empty empty -2 -8 0 10
-204786 -1 -1 0 1;
#X floatatom 278 567 5 0 0 0 - - -;
#X obj 218 592 lop~ 3500;
#X obj 218 515 *~ 0.2;
#X obj 763 639 osc~ 3;
#X obj 919 278 * 32;
#X obj 911 248 r global_metro;
#X connect 0 0 10 5;
#X connect 1 0 10 4;
#X connect 2 0 10 3;
#X connect 3 0 10 1;
#X connect 4 0 10 2;
#X connect 10 0 26 1;
#X connect 11 0 18 0;
#X connect 11 0 16 0;
#X connect 11 0 19 0;
#X connect 12 0 10 0;
#X connect 13 0 14 0;
#X connect 13 0 17 0;
#X connect 13 0 40 0;
#X connect 14 0 12 0;
#X connect 15 0 12 0;
#X connect 16 0 1 0;
#X connect 17 0 15 0;
#X connect 18 0 4 0;
#X connect 18 0 2 0;
#X connect 18 0 17 1;
#X connect 19 0 0 0;
#X connect 20 0 13 0;
#X connect 21 0 23 0;
#X connect 21 0 48 1;
#X connect 22 0 21 0;
#X connect 23 0 24 0;
#X connect 24 0 25 0;
#X connect 26 0 56 0;
#X connect 27 0 28 0;
#X connect 28 0 29 0;
#X connect 30 0 41 0;
#X connect 31 0 32 0;
#X connect 32 0 33 0;
#X connect 34 0 42 0;
#X connect 35 0 42 0;
#X connect 36 0 38 0;
#X connect 37 0 21 0;
#X connect 38 0 22 0;
#X connect 38 0 30 0;
#X connect 38 0 34 0;
#X connect 38 1 22 0;
#X connect 38 1 30 0;
#X connect 38 1 35 0;
#X connect 38 2 30 0;
#X connect 38 2 35 0;
#X connect 38 2 37 0;
#X connect 38 3 37 0;
#X connect 38 3 30 0;
#X connect 38 3 34 0;
#X connect 38 4 37 0;
#X connect 38 4 39 0;
#X connect 38 4 34 0;
#X connect 38 5 37 0;
#X connect 38 5 39 0;
#X connect 38 5 35 0;
#X connect 39 0 41 0;
#X connect 40 0 36 0;
#X connect 41 0 27 0;
#X connect 41 0 50 1;
#X connect 42 0 31 0;
#X connect 42 0 52 1;
#X connect 43 0 3 0;
#X connect 44 0 45 0;
#X connect 45 0 46 0;
#X connect 46 0 47 0;
#X connect 47 0 59 0;
#X connect 48 0 49 0;
#X connect 49 0 58 0;
#X connect 50 0 51 0;
#X connect 51 0 57 0;
#X connect 52 0 53 0;
#X connect 53 0 55 0;
#X connect 54 0 65 0;
#X connect 54 0 44 0;
#X connect 55 0 69 0;
#X connect 56 0 64 0;
#X connect 57 0 69 0;
#X connect 58 0 69 0;
#X connect 60 0 52 0;
#X connect 61 0 50 0;
#X connect 62 0 48 0;
#X connect 64 0 63 0;
#X connect 64 1 63 0;
#X connect 65 0 42 1;
#X connect 65 0 41 1;
#X connect 65 0 21 1;
#X connect 66 0 67 0;
#X connect 67 0 68 1;
#X connect 68 0 26 0;
#X connect 69 0 68 0;
#X connect 70 0 45 0;
#X connect 71 0 0 0;
#X connect 72 0 71 0;
#X restore 372 815 pd pads_var2;
#X obj 273 847 throw~ out_main;
#X obj 30 1191 catch~ out_main;
#X obj 95 772 throw~ out_main;
#X obj 37 37;
#X obj 509 800 bng 15 250 50 0 empty empty empty 17 7 0 10 -262144
-1 -1;
#X obj 541 835 throw~ out_main;
#X msg 539 81 400;
#X obj 458 124 metro 400;
#N canvas 1241 270 480 835 bd 0;
#X obj 60 746 outlet;
#X obj 164 454 hsl 128 15 70 500 1 1 empty empty FREQUENCY -2 -8 0
10 -262144 -1 -1 308 1;
#X obj 185 518 hsl 128 15 0 1 0 1 empty empty DAMPING -2 -8 0 10 -262144
-1 -1 10160 1;
#X obj 196 551 hsl 128 15 -1 1 0 1 empty empty APF-GAIN -2 -8 0 10
-262144 -1 -1 10795 1;
#X obj 206 586 hsl 128 15 70 500 1 1 empty empty APF-FREQUENCY -2 -8
0 10 -262144 -1 -1 4785 1;
#X obj 175 486 hsl 128 15 0.5 1 1 1 empty empty FEEDBACK -2 -8 0 10
-262144 -1 -1 12700 1;
#X obj 225 642 tgl 15 1 empty empty RESET 17 7 0 10 -262144 -1 -1 1
1;
#X obj 217 619 hsl 128 15 0.001 1 1 1 empty empty NOISE-LEVEL -2 -8
0 10 -262144 -1 -1 4233 1;
#X obj 151 663 mymembrane~;
#X obj 86 421 euclid;
#X floatatom 99 297 5 0 0 0 - - -;
#X obj 86 452 bng 15 250 50 0 empty empty empty 17 7 0 10 -262144 -1
-1;
#X obj 161 381 mtof;
#X obj 125 326 loadbang;
#X msg 112 356 2;
#X msg 125 392 16;
#X obj 29 382 r counter;
#X obj 221 326 r root;
#X obj 190 755 outlet~;
#N canvas 884 137 423 375 number_of_events 0;
#X obj 223 296 outlet;
#X obj 24 12 inlet;
#X obj 117 12 inlet;
#X obj 211 27 loadbang;
#X msg 211 54 0;
#X floatatom 211 80 5 0 1 0 - - -;
#X obj 129 75 bng 15 250 50 0 empty empty empty 17 7 0 10 -262144 -1
-1;
#X obj 234 162 random 3;
#X obj 234 201 sel 0 1 2;
#X msg 221 244 7;
#X msg 260 244 9;
#X obj 211 114 sel 0 1;
#X msg 299 244 10;
#X msg 172 150 0;
#X connect 1 0 6 0;
#X connect 2 0 5 0;
#X connect 3 0 4 0;
#X connect 4 0 5 0;
#X connect 5 0 11 0;
#X connect 6 0 5 0;
#X connect 7 0 8 0;
#X connect 8 0 9 0;
#X connect 8 1 10 0;
#X connect 8 2 12 0;
#X connect 9 0 0 0;
#X connect 10 0 0 0;
#X connect 11 0 13 0;
#X connect 11 1 7 0;
#X connect 12 0 0 0;
#X connect 13 0 0 0;
#X restore 202 253 pd number_of_events;
#X obj 332 226 r state;
#X obj 93 175 metro;
#X obj 93 206 bng 15 250 50 0 empty empty empty 17 7 0 10 -262144 -1
-1;
#X obj 174 156 * 16;
#X floatatom 174 131 5 0 0 0 - - -;
#X obj 93 143 r toggle;
#X obj 174 105 r global_metro;
#X obj 161 411 * 0.5;
#X floatatom 161 355 5 0 0 0 - - -;
#X floatatom 13 574 5 0 0 0 - - -;
#X obj 5 519 random 41;
#X obj 8 546 + 87;
#X obj 282 704 *~ 0.7;
#X msg 305 393 1;
#X msg 358 463 0.7;
#X obj 347 332 loadbang;
#X msg 375 505 0.01;
#X msg 336 422 0.8;
#X connect 1 0 8 1;
#X connect 2 0 8 3;
#X connect 3 0 8 4;
#X connect 4 0 8 5;
#X connect 5 0 8 2;
#X connect 6 0 8 7;
#X connect 7 0 8 6;
#X connect 8 0 32 0;
#X connect 9 0 11 0;
#X connect 10 0 9 1;
#X connect 11 0 0 0;
#X connect 11 0 30 0;
#X connect 12 0 27 0;
#X connect 12 0 4 0;
#X connect 13 0 14 0;
#X connect 13 0 15 0;
#X connect 14 0 9 2;
#X connect 15 0 9 3;
#X connect 15 0 23 1;
#X connect 16 0 9 0;
#X connect 17 0 28 0;
#X connect 19 0 10 0;
#X connect 20 0 19 1;
#X connect 21 0 22 0;
#X connect 22 0 19 0;
#X connect 23 0 21 1;
#X connect 24 0 23 0;
#X connect 25 0 21 0;
#X connect 26 0 24 0;
#X connect 27 0 1 0;
#X connect 28 0 12 0;
#X connect 29 0 8 0;
#X connect 30 0 31 0;
#X connect 31 0 29 0;
#X connect 32 0 18 0;
#X connect 33 0 5 0;
#X connect 34 0 3 0;
#X connect 35 0 33 0;
#X connect 35 0 37 0;
#X connect 35 0 36 0;
#X connect 35 0 34 0;
#X connect 36 0 7 0;
#X connect 37 0 2 0;
#X restore 509 774 pd bd;
#X obj 539 55 sel 0 1;
#X msg 575 81 250;
#X obj 539 29 r state;
#X floatatom 537 106 5 0 0 0 - - -;
#X obj 30 1218 *~ 0.8;
#N canvas 1438 411 812 638 cz_synth 0;
#X obj 71 294 hsl 128 15 0 1 0 0 empty empty empty -2 -8 0 10 -262144
-1 -1 0 1;
#X msg 68 317 \$1 100;
#X obj 68 338 line~;
#X obj 39 402 cz-osc~ saw;
#X floatatom 192 361 5 0 0 0 - - -;
#X obj 37 48 inlet;
#X obj 37 545 outlet~;
#X floatatom 451 355 5 0 0 0 - - -;
#X floatatom 433 326 5 0 0 0 - - -;
#X floatatom 416 301 5 0 0 0 - - -;
#X floatatom 381 254 5 0 0 0 - - -;
#X floatatom 399 279 5 0 0 0 - - -;
#X text 419 252 peak level;
#X text 440 274 attack duration (ms);
#X text 454 296 decay duration (ms);
#X text 474 322 sustain level (% of peak);
#X text 486 352 release duration (ms);
#N canvas 251 52 707 458 envelope_adsr 0;
#X obj 209 53 moses;
#X obj 112 56 inlet;
#X obj 112 92 sel 0;
#X msg 111 130 stop;
#X obj 209 93 t b b;
#X obj 258 125 t b;
#X obj 174 209 f \$1;
#X obj 174 245 pack 0 \$2;
#X msg 125 245 0;
#X obj 337 145 inlet;
#X obj 377 145 inlet;
#X obj 421 145 inlet;
#X obj 461 145 inlet;
#X obj 314 239 del \$2;
#X obj 314 265 f \$4;
#X obj 390 268 * \$1;
#X obj 389 299 pack 0 \$3;
#X obj 472 301 pack 0 \$5;
#X obj 518 269 inlet;
#X obj 354 358 line~;
#X obj 354 386 outlet~;
#X obj 313 299 * 0.5;
#X connect 0 0 4 0;
#X connect 0 1 5 0;
#X connect 1 0 2 0;
#X connect 2 0 3 0;
#X connect 2 0 17 0;
#X connect 2 1 0 0;
#X connect 3 0 13 0;
#X connect 4 0 5 0;
#X connect 4 1 8 0;
#X connect 5 0 6 0;
#X connect 5 0 13 0;
#X connect 6 0 7 0;
#X connect 7 0 19 0;
#X connect 8 0 19 0;
#X connect 9 0 15 1;
#X connect 9 0 6 1;
#X connect 10 0 13 1;
#X connect 10 0 7 1;
#X connect 11 0 16 1;
#X connect 12 0 14 1;
#X connect 13 0 14 0;
#X connect 14 0 21 0;
#X connect 15 0 16 0;
#X connect 16 0 19 0;
#X connect 17 0 19 0;
#X connect 18 0 17 1;
#X connect 19 0 20 0;
#X connect 21 0 15 0;
#X restore 358 393 pd envelope_adsr;
#X obj 329 297 tgl 15 0 empty empty empty 17 7 0 10 -262144 -1 -1 0
1;
#X msg 307 255 1;
#X msg 339 255 0;
#X obj 339 222 del 250;
#X obj 37 519 *~;
#X obj 451 149 inlet;
#X floatatom 139 360 5 0 0 0 - - -;
#X obj 67 220 line;
#X floatatom 97 257 5 0 0 0 - - -;
#X msg 207 164 1 \, 0 2000 100;
#X obj 141 328 random 7;
#X obj 208 329 random 7;
#N canvas 67 23 1213 755 series 0;
#X obj 213 106 phasor~;
#X obj 213 51 mtof;
#X obj 216 25 hsl 128 15 30 100 0 1 empty empty empty -2 -8 0 10 -262144
-1 -1 500 1;
#X floatatom 213 80 0 0 0 0 - - -;
#X obj 576 257 vradio 15 1 0 8 empty empty empty 0 -8 0 10 -262144
-1 -1 5;
#X text 593 255 saw;
#X text 593 271 square;
#X text 593 286 pulse;
#X text 593 302 sinepulse;
#X text 593 316 halfsine;
#X text 593 332 ressaw;
#X text 593 347 restriangle;
#X text 593 363 restrapezoid;
#X obj 429 162 hsl 128 15 0 0.99 0 0 empty empty empty -2 -8 0 10 -262144
-1 -1 0 1;
#X msg 426 345 \$1 100;
#X obj 426 372 line~;
#X floatatom 426 322 0 0 0 0 - - -;
#X obj 507 200 hsl 128 15 0 65 0 0 empty empty empty -2 -8 0 10 -262144
-1 -1 0 1;
#X floatatom 264 55 5 0 0 0 - - -;
#X obj 426 233 expr pow($f1 \, 1.0/3);
#X text 567 161 non-resonant modulation;
#X obj 288 202 -~ 0.5;
#X obj 288 263 *~ 2;
#X obj 213 203 *~ 2;
#X obj 43 270 vradio 15 1 0 8 empty empty empty 0 -8 0 10 -262144 -1
-1 0;
#X text 60 268 saw;
#X text 60 284 square;
#X text 60 299 pulse;
#X text 60 315 sinepulse;
#X text 60 329 halfsine;
#X text 60 345 ressaw;
#X text 60 360 restriangle;
#X text 60 376 restrapezoid;
#X text 350 24 MIDI note;
#N canvas 0 22 450 278 (subpatch) 0;
#X array \$0-waveform.series 400 float 0;
#X coords 0 1 399 -1 200 140 1 0 0;
#X restore 758 352 graph;
#X obj 356 630 metro 150;
#X obj 356 601 tgl 15 0 empty empty empty 17 7 0 10 -262144 -1 -1 0
1;
#X text 377 600 <-- view waveform;
#X obj 340 661 tabwrite~ \$0-waveform.series;
#X obj 281 568 +~;
#X obj 179 560 tgl 15 0 empty empty empty 17 7 0 10 -262144 -1 -1 0
1;
#X obj 159 691 send~ \$0-to.dac;
#X text 51 558 click to listen -->;
#X obj 173 643 *~ 0;
#X obj 49 645 == 0;
#X obj 48 670 s \$0-series.on;
#X obj 213 153 expr~ ($v1<.5)*$v1 \; ($v1>=.5)*$v1;
#X obj 288 230 max~ 0;
#X text 309 80 <-- if the two oscillators are exactly the same \, then
the fundamental frequency will be twice this;
#X text 642 198 resonant modulation (note: if both oscillators have
the same resonant frequency \, as is the case here \, the resonance
will be twice the fundamental);
#X obj 714 18 cnv 15 400 120 empty empty empty 20 12 0 14 -203904 -66577
0;
#X text 724 22 One of the interesting things about the Casio CZ oscillators
is that you could run two oscillators in "series". What this meant
is that one cycle would be the first waveform \, and the next cycle
would be the second waveform--they would alternate. This subpatch shows
how to do that. Also \, while the original CZ series didn't allow you
to use the resonant oscillators in series \, it's not a problem with
this implemenation.;
#X obj 175 515 cz-osc~ saw;
#X obj 424 513 cz-osc~ square;
#X connect 0 0 46 0;
#X connect 1 0 3 0;
#X connect 2 0 1 0;
#X connect 2 0 18 0;
#X connect 3 0 0 0;
#X connect 4 0 53 2;
#X connect 13 0 19 0;
#X connect 14 0 15 0;
#X connect 15 0 52 1;
#X connect 15 0 53 1;
#X connect 16 0 14 0;
#X connect 17 0 16 0;
#X connect 19 0 16 0;
#X connect 21 0 47 0;
#X connect 22 0 53 0;
#X connect 23 0 52 0;
#X connect 24 0 52 2;
#X connect 35 0 38 0;
#X connect 36 0 35 0;
#X connect 39 0 38 0;
#X connect 39 0 43 0;
#X connect 40 0 43 1;
#X connect 40 0 44 0;
#X connect 43 0 41 0;
#X connect 44 0 45 0;
#X connect 46 0 23 0;
#X connect 46 1 21 0;
#X connect 47 0 22 0;
#X connect 52 0 39 0;
#X connect 53 0 39 1;
#X restore 550 185 pd series;
#X obj 27 447 *~ 1;
#X obj 48 426 r \$0-series.on;
#X obj 70 448 receive~ \$0-to.dac;
#X msg 461 215 1;
#X msg 513 229 5;
#X obj 640 206 r global_metro;
#X obj 523 147 loadbang;
#X obj 640 233 * 64;
#X obj 164 122 del 2000;
#X msg 103 164 0 \, 1 1500 100;
#X obj 37 486 *~ 0.1;
#X connect 0 0 1 0;
#X connect 1 0 2 0;
#X connect 2 0 3 1;
#X connect 3 0 31 0;
#X connect 4 0 3 3;
#X connect 5 0 3 0;
#X connect 7 0 17 5;
#X connect 8 0 17 4;
#X connect 9 0 17 3;
#X connect 10 0 17 1;
#X connect 11 0 17 2;
#X connect 17 0 22 1;
#X connect 18 0 17 0;
#X connect 19 0 18 0;
#X connect 20 0 18 0;
#X connect 21 0 20 0;
#X connect 22 0 6 0;
#X connect 23 0 21 0;
#X connect 23 0 19 0;
#X connect 23 0 40 0;
#X connect 23 0 28 0;
#X connect 23 0 29 0;
#X connect 23 0 39 0;
#X connect 24 0 3 2;
#X connect 25 0 0 0;
#X connect 25 0 26 0;
#X connect 27 0 25 0;
#X connect 28 0 24 0;
#X connect 29 0 4 0;
#X connect 31 0 41 0;
#X connect 32 0 31 1;
#X connect 33 0 41 0;
#X connect 34 0 10 0;
#X connect 34 0 11 0;
#X connect 34 0 8 0;
#X connect 35 0 9 0;
#X connect 36 0 38 0;
#X connect 37 0 34 0;
#X connect 37 0 35 0;
#X connect 38 0 7 0;
#X connect 39 0 27 0;
#X connect 40 0 25 0;
#X connect 41 0 22 0;
#X restore 515 674 pd cz_synth;
#N canvas 1026 414 479 474 distortion 0;
#X obj 147 32 inlet~;
#X obj 159 351 outlet~;
#N canvas 0 23 713 460 tanh 0;
#X obj 241 65 inlet~;
#X text 493 89 __;
#X text 575 89 __;
#X text 527 89 __;
#X text 626 89 __;
#X text 493 106 1 +;
#X text 529 106 3 +;
#X text 577 106 5 +;
#X text 627 106 7 +;
#X text 443 32 As a continued fraction;
#X obj 240 148 *~;
#X obj 165 265 /~;
#X obj 165 350 /~;
#X obj 165 288 /~;
#X obj 165 321 /~;
#X text 427 78 tanh(z) = z z^2 4z^2 9z^2 ...;
#X obj 292 175 *~ 4;
#X obj 291 206 +~ 3;
#X obj 335 174 *~ 9;
#X obj 334 205 +~ 5;
#X obj 375 175 *~ 16;
#X obj 374 205 +~ 7;
#X obj 240 206 +~ 1;
#X obj 165 401 outlet~;
#X obj 165 372 *~ 576;
#X text 276 114 1/pi;
#X obj 241 89 *~ 0.30831;
#X connect 0 0 26 0;
#X connect 10 0 16 0;
#X connect 10 0 18 0;
#X connect 10 0 20 0;
#X connect 10 0 22 0;
#X connect 11 0 13 0;
#X connect 12 0 24 0;
#X connect 13 0 14 0;
#X connect 14 0 12 0;
#X connect 16 0 17 0;
#X connect 17 0 13 1;
#X connect 18 0 19 0;
#X connect 19 0 14 1;
#X connect 20 0 21 0;
#X connect 21 0 12 1;
#X connect 22 0 11 1;
#X connect 24 0 23 0;
#X connect 26 0 10 1;
#X connect 26 0 10 0;
#X connect 26 0 11 0;
#X restore 238 187 pd tanh afarnell;
#X obj 233 142 *~ 4.44;
#X obj 244 243 *~ 0.35;
#X obj 121 229 *~ 0.65;
#X connect 0 0 3 0;
#X connect 0 0 5 0;
#X connect 2 0 4 0;
#X connect 3 0 2 0;
#X connect 4 0 1 0;
#X connect 5 0 1 0;
#X restore 541 805 pd distortion;
#X obj 515 576 r root;
#X obj 515 600 mtof;
#X floatatom 515 649 5 0 0 0 - - -;
#X obj 288 1078 throw~ out_main;
#X obj 589 650 bng 15 250 50 0 empty empty empty 17 7 0 10 -262144
-1 -1;
#X obj 312 515 sel 0 1;
#X obj 312 489 r state;
#X text 555 524 BLASTER BEAM;
#X text 564 774 BATTLE DRUM;
#X msg 469 547 0;
#X obj 603 580 sel 0 1;
#X obj 602 554 r state;
#X obj 275 582 * 32;
#X floatatom 275 609 5 0 0 0 - - -;
#X obj 275 555 r global_metro;
#N canvas 154 225 364 640 flanger 0;
#X obj 75 208 +~ 1;
#X obj 75 235 *~ 0.5;
#X text 73 100 Low Frequency Oscillator;
#X text 203 263 Depth (ms);
#X obj 74 513 *~ 1;
#X text 87 546 y[n] = x[n] + ax[n-t];
#X text 163 487 Feedback (0-1);
#X obj 75 181 osc~ 1;
#X text 117 513 ax[n-t];
#X text 131 156 Rate (Hz);
#X obj 45 545 +~, f 4;
#X obj 75 294 *~ 1, f 9;
#X obj 74 377 +~ 0.001, f 11;
#X obj 51 18 inlet~;
#X obj 46 606 outlet~;
#X obj 145 232 loadbang;
#X msg 138 261 0.818;
#X obj 147 314 loadbang;
#X msg 140 343 0.818;
#X obj 106 454 loadbang;
#X msg 99 483 0.897;
#X obj 84 126 loadbang;
#X obj 79 63 delwrite~ \$1-delay2 5000;
#X obj 74 417 vd~ \$1-delay2, f 16;
#X msg 77 155 0.187;
#X connect 0 0 1 0;
#X connect 1 0 11 0;
#X connect 4 0 10 1;
#X connect 7 0 0 0;
#X connect 10 0 14 0;
#X connect 11 0 12 0;
#X connect 12 0 23 0;
#X connect 13 0 10 0;
#X connect 13 0 22 0;
#X connect 15 0 16 0;
#X connect 16 0 11 1;
#X connect 17 0 18 0;
#X connect 18 0 12 1;
#X connect 19 0 20 0;
#X connect 20 0 4 1;
#X connect 21 0 24 0;
#X connect 23 0 4 0;
#X connect 24 0 7 0;
#X restore 515 698 pd flanger;
#X obj 649 660 tgl 15 0 empty empty empty 17 7 0 10 -262144 -1 -1 0
1;
#X msg 627 618 1;
#X msg 659 618 0;
#X obj 694 543 * 32;
#X floatatom 694 570 5 0 0 0 - - -;
#X obj 694 516 r global_metro;
#X obj 273 1038 *~;
#X floatatom 561 1024 5 0 0 0 - - -;
#X obj 309 1038 *~;
#X obj 573 967 loadbang;
#N canvas 284 101 369 264 stereoReverb 0;
#X obj 157 87 hv.reverb;
#X obj 69 89 hv.reverb;
#X obj 89 175 outlet~;
#X obj 156 175 outlet~;
#X obj 55 28 inlet~;
#X obj 141 30 inlet~;
#X obj 252 28 inlet;
#X connect 0 0 2 0;
#X connect 0 1 3 0;
#X connect 1 0 2 0;
#X connect 1 1 3 0;
#X connect 4 0 1 0;
#X connect 5 0 0 0;
#X connect 6 0 0 1;
#X connect 6 0 1 1;
#X restore 249 983 pd stereoReverb;
#X msg 408 909 wet-gain 100;
#X msg 467 983 dry-gain 90;
#X obj 447 875 loadbang;
#X msg 571 991 0.75;
#X obj 515 625 * 0.5;
#X obj 765 99 hradio 15 1 0 2 empty empty empty 0 -8 0 10 -262144 -1
-1 0;
#X floatatom 765 119 5 0 0 0 - - -;
#X msg 454 958 damp 20;
#X msg 431 935 feedback 90;
#X msg 426 547 0.99;
#X msg 379 547 0.75;
#X obj 25 996 throw~ out_main;
#X obj 25 969 *~ 0.6;
#X msg 187 546 0.77;
#X obj 25 943 catch~ out_sfx_explosions;
#X obj 25 1078 throw~ out_main;
#X obj 25 1025 catch~ out_sfx_blasters;
#X obj 25 1051 *~ 0.75;
#X obj 249 945 catch~ stereo_verb;
#X obj 515 725 throw~ stereo_verb;
#X obj 273 686 metro;
#X msg 220 546 0.4;
#X obj 715 611 metro 8000;
#X msg 165 272 3;
#X connect 0 0 20 0;
#X connect 0 0 22 0;
#X connect 0 0 23 0;
#X connect 0 0 68 0;
#X connect 1 0 2 0;
#X connect 4 0 7 0;
#X connect 7 0 5 0;
#X connect 8 0 16 0;
#X connect 10 0 9 0;
#X connect 11 0 10 0;
#X connect 12 0 11 0;
#X connect 13 0 29 0;
#X connect 14 0 52 0;
#X connect 16 0 11 1;
#X connect 18 0 19 0;
#X connect 18 0 21 0;
#X connect 19 0 18 1;
#X connect 20 0 18 1;
#X connect 24 0 124 0;
#X connect 25 0 30 0;
#X connect 29 0 12 0;
#X connect 30 0 27 0;
#X connect 31 0 58 0;
#X connect 32 0 63 0;
#X connect 33 0 32 0;
#X connect 34 0 35 0;
#X connect 35 0 32 1;
#X connect 36 0 37 0;
#X connect 37 0 53 1;
#X connect 38 0 13 0;
#X connect 42 0 13 0;
#X connect 44 0 42 0;
#X connect 45 0 127 0;
#X connect 48 0 109 0;
#X connect 49 0 109 0;
#X connect 50 0 48 0;
#X connect 52 0 13 0;
#X connect 53 0 61 0;
#X connect 54 0 53 0;
#X connect 55 0 56 0;
#X connect 56 0 60 1;
#X connect 57 0 60 0;
#X connect 58 0 59 0;
#X connect 59 0 54 0;
#X connect 59 1 57 0;
#X connect 60 0 61 0;
#X connect 62 0 74 0;
#X connect 67 0 73 0;
#X connect 68 0 3 0;
#X connect 68 0 18 0;
#X connect 69 0 65 0;
#X connect 69 1 76 0;
#X connect 70 0 67 0;
#X connect 70 1 71 0;
#X connect 71 0 73 0;
#X connect 72 0 70 0;
#X connect 73 0 68 1;
#X connect 73 0 43 0;
#X connect 74 0 17 0;
#X connect 74 0 17 1;
#X connect 75 0 92 0;
#X connect 76 0 66 0;
#X connect 77 0 78 0;
#X connect 78 0 108 0;
#X connect 79 0 75 0;
#X connect 81 0 75 1;
#X connect 82 0 117 0;
#X connect 82 0 114 0;
#X connect 82 0 113 0;
#X connect 82 1 86 0;
#X connect 82 1 125 0;
#X connect 83 0 82 0;
#X connect 86 0 36 0;
#X connect 86 0 55 0;
#X connect 87 0 95 0;
#X connect 87 1 94 0;
#X connect 88 0 87 0;
#X connect 89 0 90 0;
#X connect 90 0 124 1;
#X connect 91 0 89 0;
#X connect 92 0 123 0;
#X connect 93 0 126 0;
#X connect 94 0 93 0;
#X connect 95 0 93 0;
#X connect 95 0 126 1;
#X connect 96 0 97 0;
#X connect 97 0 126 1;
#X connect 98 0 96 0;
#X connect 99 0 80 0;
#X connect 100 0 101 1;
#X connect 100 0 99 1;
#X connect 101 0 80 0;
#X connect 102 0 107 0;
#X connect 103 0 99 0;
#X connect 103 1 101 0;
#X connect 104 0 103 2;
#X connect 105 0 103 2;
#X connect 106 0 104 0;
#X connect 106 0 105 0;
#X connect 106 0 112 0;
#X connect 106 0 111 0;
#X connect 107 0 100 0;
#X connect 108 0 79 0;
#X connect 109 0 110 0;
#X connect 110 0 47 0;
#X connect 111 0 103 2;
#X connect 112 0 103 2;
#X connect 113 0 55 0;
#X connect 114 0 36 0;
#X connect 116 0 115 0;
#X connect 117 0 34 0;
#X connect 118 0 116 0;
#X connect 120 0 121 0;
#X connect 121 0 119 0;
#X connect 122 0 103 0;
#X connect 122 0 103 1;
#X connect 124 0 31 0;
#X connect 125 0 34 0;
#X connect 126 0 81 0;
#X connect 127 0 42 1;
